{"title":"Last.of.the.Summer.Wine.S22E01.WS.DSR.x264.mp4","uid":9413685,"size":275537864,"categoryP":"video","categoryS":"tv_shows","magnet":"?xt=urn:btih:b535e3d1a81b694aa3ca4f68a9ee3f93d573d0bd&amp;dn=Last.of.the.Summer.Wine.S22E01.WS.DSR.x264.mp4&amp;tr=udp%3A%2F%2Ftracker.openbittorrent.com%3A80&amp;tr=udp%3A%2F%2Fopen.demonii.com%3A1337&amp;tr=udp%3A%2F%2Ftracker.coppersurfer.tk%3A6969&amp;tr=udp%3A%2F%2Fexodus.desync.com%3A6969","seeders":2,"leechers":0,"uploader":null,"files":1,"time":1388375149,"description":"Last of the Summer Wine S22E10\nGetting Barrys Goat\n\nLOTSW.S22E01.WS.DSR.x264.mp4\n\n\nVideo\nID                               : 1\nFormat                           : AVC\nFormat/Info                      : Advanced Video Codec\nFormat profile                   : &lt;a class=&quot;__cf_email__&quot; href=&quot;/cdn-cgi/l/email-protection&quot; data-cfemail=&quot;9fd7f6f8f7dfd3acb1ae&quot;&gt;[email&amp;#160;protected]&lt;/a&gt;&lt;script cf-hash='f9e31' type=&quot;text/javascript&quot;&gt;\n/* &lt;![CDATA[ */!function(){try{var t=&quot;currentScript&quot;in document?document.currentScript:function(){for(var t=document.getElementsByTagName(&quot;script&quot;),e=t.length;e--;)if(t[e].getAttribute(&quot;cf-hash&quot;))return t[e]}();if(t&amp;&amp;t.previousSibling){var e,r,n,i,c=t.previousSibling,a=c.getAttribute(&quot;data-cfemail&quot;);if(a){for(e=&quot;&quot;,r=parseInt(a.substr(0,2),16),n=2;a.length-n;n+=2)i=parseInt(a.substr(n,2),16)^r,e+=String.fromCharCode(i);e=document.createTextNode(e),c.parentNode.replaceChild(e,c)}}}catch(u){}}();/* ]]&gt; */&lt;/script&gt;\nFormat settings, CABAC           : Yes\nFormat settings, ReFrames        : 5 frames\nCodec ID                         : avc1\nCodec ID/Info                    : Advanced Video Coding\nDuration                         : 29mn 1s\nBit rate mode                    : Variable\nBit rate                         : 1 100 Kbps\nWidth                            : 768 pixels\nHeight                           : 432 pixels\nDisplay aspect ratio             : 16:9\nFrame rate mode                  : Constant\nFrame rate                       : 29.970 fps\nColor space                      : YUV\nChroma subsampling               : 4:2:0\nBit depth                        : 8 bits\nScan type                        : Progressive\nBits/(Pixel*Frame)               : 0.111\nStream size                      : 228 MiB (87%)\nWriting library                  : x264 core 130 r2273 b3065e6\nEncoding settings                : cabac=1 / ref=5 / deblock=1:0:0 / analyse=0x3:0x133 / me=umh / subme=10 / psy=1 / psy_rd=1.00:0.00 / mixed_ref=1 / me_range=24 / chroma_me=1 / trellis=2 / 8x8dct=1 / cqm=0 / deadzone=21,11 / fast_pskip=1 / chroma_qp_offset=-2 / threads=3 / lookahead_threads=1 / sliced_threads=0 / nr=0 / decimate=1 / interlaced=0 / bluray_compat=0 / constrained_intra=0 / bframes=3 / b_pyramid=2 / b_adapt=2 / b_bias=0 / direct=3 / weightb=1 / open_gop=0 / weightp=2 / keyint=300 / keyint_min=30 / scenecut=40 / intra_refresh=0 / rc_lookahead=60 / rc=2pass / mbtree=1 / bitrate=1100 / ratetol=1.0 / qcomp=0.60 / qpmin=0 / qpmax=69 / qpstep=4 / cplxblur=20.0 / qblur=0.5 / vbv_maxrate=17500 / vbv_bufsize=17500 / nal_hrd=none / ip_ratio=1.40 / aq=1:1.00\nEncoded date                     : UTC 2013-12-29 04:53:54\nTagged date                      : UTC 2013-12-29 08:41:53\nColor primaries                  : BT.709-5, BT.1361, IEC 61966-2-4, SMPTE RP177\nTransfer characteristics         : BT.709-5, BT.1361\nMatrix coefficients              : BT.709-5, BT.1361, IEC 61966-2-4 709, SMPTE RP177\n\nAudio\nID                               : 2\nFormat                           : AAC\nFormat/Info                      : Advanced Audio Codec\nFormat profile                   : LC\nCodec ID                         : 40\nDuration                         : 29mn 1s\nBit rate mode                    : Variable\nBit rate                         : 160 Kbps\nMaximum bit rate                 : 189 Kbps\nChannel(s)                       : 2 channels\nChannel positions                : Front: L R\nSampling rate                    : 48.0 KHz\nCompression mode                 : Lossy\nStream size                      : 33.2 MiB (13%)\nEncoded date                     : UTC 2013-12-29 04:53:54\nTagged date                      : UTC 2013-12-29 08:41:53","torrent":{"xt":"urn:btih:b535e3d1a81b694aa3ca4f68a9ee3f93d573d0bd","amp;dn":"Last.of.the.Summer.Wine.S22E01.WS.DSR.x264.mp4","amp;tr":["udp%3A%2F%2Ftracker.openbittorrent.com%3A80","udp%3A%2F%2Fopen.demonii.com%3A1337","udp%3A%2F%2Ftracker.coppersurfer.tk%3A6969","udp%3A%2F%2Fexodus.desync.com%3A6969"],"infoHash":"b535e3d1a81b694aa3ca4f68a9ee3f93d573d0bd","infoHashBuffer":{"type":"Buffer","data":[181,53,227,209,168,27,105,74,163,202,79,104,169,238,63,147,213,115,208,189]},"announce":[],"urlList":[]}}